<?xml version="1.0" encoding="UTF-8"?>
<svg id="_レイヤー_2" data-name="レイヤー 2" xmlns="http://www.w3.org/2000/svg" viewBox="0 0 1969.19 1180.68">
  <defs>
    <style>
      .cls-1 {
        fill: #fff;
        stroke-width: 0px;
      }
    </style>
  </defs>
  <g id="_レイヤー_1-2" data-name="レイヤー 1">
    <polygon class="cls-1" points="1024.83 1180.68 1024.83 1021.44 1019.66 1021.44 1019.66 973.06 1014.09 973.06 1014.09 1021.44 984.85 1021.44 984.85 1123.39 955.6 1123.39 955.6 1092.28 936.11 1092.28 936.11 907.4 901.3 907.4 901.3 866.31 871.74 866.31 838.64 872.54 838.64 903.95 770.41 903.95 770.41 933.32 748.13 933.32 748.13 1040.45 741.17 1040.45 741.17 1014.53 734.21 1014.53 734.21 1040.45 727.24 1040.45 727.24 1004.16 721.67 1004.16 721.67 1040.45 706.36 1040.45 706.36 1012.8 689.65 1012.8 689.65 993.8 659.01 993.8 659.01 1012.8 608.89 1012.8 608.89 1033.54 583.82 1033.54 583.82 1040.45 551.8 1040.45 551.8 1004.84 521.99 998.98 490.53 998.98 490.53 1040.45 457.11 1040.45 457.11 933.32 423.69 933.32 423.69 900.49 403.73 900.49 376.35 906.9 376.35 933.32 366.6 933.32 366.6 1068.09 342.93 1068.09 342.93 1102.65 323.44 1102.65 323.44 933.32 290.02 933.32 290.02 876.82 243.81 866.31 182.8 866.31 182.8 897.04 136.85 897.04 136.85 872.73 108.63 866.31 82.54 866.31 82.54 853.84 61.66 853.84 61.66 866.31 51.91 866.31 51.91 1007.62 37.99 1007.62 37.99 1073.28 15.71 1073.28 15.71 1042.18 12.92 1042.18 12.92 1073.28 0 1073.28 0 1180.68 1024.83 1180.68"/>
    <path class="cls-1" d="M737.49,107.83c.18-.75.28-1.51.28-2.27,0-16.62-44.14-30.09-98.59-30.09-38.13,0-71.2,6.61-87.6,16.28-9.06-.8-18.83-1.23-29-1.23-42.92,0-78.51,7.7-85.15,17.79-1,0-2,0-3.01,0-62.83,0-113.76,11.64-113.76,25.99,0,11.53,32.86,21.3,78.35,24.7,6.97,17.62,65.99,31.38,137.76,31.38s127.37-12.98,137.02-29.87c10.67.74,21.96,1.14,33.66,1.14,64.92,0,117.55-12.25,117.55-27.36,0-12.69-37.14-23.36-87.5-26.45Z"/>
    <path class="cls-1" d="M1670.94,92.35c0-10.28-42.24-18.61-94.35-18.61-41.54,0-76.8,5.29-89.4,12.65-8.51-.42-17.58-.64-27.01-.64-48.32,0-87.5,5.91-87.5,13.2s39.17,13.21,87.5,13.21c2.33,0,4.64-.01,6.92-.04,1.47,12.06,25.74,21.65,55.47,21.65s55.54-10.21,55.54-22.81c0,0,0,0,0,0,51.41-.16,92.83-8.43,92.83-18.6Z"/>
    <path class="cls-1" d="M230.37,251.87c-2.52,0-5,.03-7.47.08-5.71-9.69-31-17-61.35-17s-55.78,7.35-61.39,17.08c-46.17,1.05-81.61,7.21-81.61,14.65,0,8.18,42.81,14.81,95.63,14.81,9.97,0,19.59-.24,28.62-.67,9.82,10.11,45.3,17.6,87.56,17.6,49.85,0,90.27-10.42,90.27-23.27s-40.41-23.27-90.27-23.27Z"/>
    <path class="cls-1" d="M907.59,15.43c-.45,0-.89,0-1.34,0-6.86-8.79-39.65-15.44-79.09-15.44-44.42,0-80.43,8.45-80.43,18.86,0,1.92,1.23,3.77,3.5,5.52-41.81,1.54-73.07,7.7-73.07,15.06,0,8.52,41.85,15.44,93.48,15.44,5.34,0,10.57-.07,15.66-.22,3.41,5.92,26.72,10.51,54.99,10.51,20.25,0,37.96-2.35,47.63-5.86,5.96.47,12.22.72,18.67.72,40.82,0,73.91-9.98,73.91-22.29s-33.09-22.29-73.91-22.29Z"/>
    <path class="cls-1" d="M1864,265.24c2.22-2.83,3.41-5.8,3.41-8.86,0-19.42-47.69-35.16-106.52-35.16-13.56,0-26.53.84-38.46,2.36-15.15-9.46-50.14-16.08-90.89-16.08-54.63,0-98.91,11.9-98.91,26.58,0,11.59,27.62,21.45,66.14,25.09-4.76,4.59-7.44,9.75-7.44,15.22,0,18.94,32.12,34.3,71.74,34.3,18.96,0,36.19-3.52,49.01-9.26,22.96,3.62,53.9,5.83,87.95,5.83,70.84,0,128.26-9.6,128.26-21.44,0-7.94-25.86-14.88-64.28-18.58Z"/>
    <path class="cls-1" d="M1425.29,55.74c0-7.1-25.79-12.86-57.61-12.86s-56.61,5.54-57.56,12.46c-22.53,1.61-39.18,7.32-39.18,14.12,0,8.05,23.36,14.58,52.17,14.58s52.17-6.53,52.17-14.58c0-.33-.05-.65-.13-.97,28.28-.82,50.13-6.21,50.13-12.75Z"/>
    <polygon class="cls-1" points="1870.73 1019.35 1870.73 1131.29 1969.19 1131.29 1969.19 1008.22 1918.04 1008.22 1870.73 1019.35"/>
    <rect class="cls-1" x="1926.73" y="999.15" width="23.38" height="10.46"/>
    <rect class="cls-1" x="1676.94" y="1077.89" width="53.51" height="10.7"/>
    <rect class="cls-1" x="1743.4" y="1077.89" width="53.51" height="10.7"/>
    <polygon class="cls-1" points="1828.13 1083.13 1672.31 1083.13 1672.31 1133.97 1859.6 1133.97 1859.6 1091.81 1828.13 1083.13"/>
    <rect class="cls-1" x="1042.19" y="1077.89" width="28.28" height="10.7"/>
    <rect class="cls-1" x="1077.32" y="1077.89" width="28.28" height="10.7"/>
    <polygon class="cls-1" points="1122.11 1083.13 1039.75 1083.13 1039.75 1133.97 1138.74 1133.97 1138.74 1091.81 1122.11 1083.13"/>
    <rect class="cls-1" x="989.84" y="1016.99" width="13.89" height="4.92"/>
    <polygon class="cls-1" points="1633.41 1127.17 1633.41 1163.4 1197.3 1163.4 1197.3 1127.17 997.97 1127.17 997.97 1180.68 1969.19 1180.68 1969.19 1127.17 1633.41 1127.17"/>
    <rect class="cls-1" x="1957.34" y="959.01" width="5.43" height="53.51"/>
    <g>
      <rect class="cls-1" x="1481.96" y="1031.21" width="27.58" height="9.29"/>
      <rect class="cls-1" x="1506.06" y="999.05" width=".98" height="34.48"/>
      <path class="cls-1" d="M1542.79,1091.74v-19.15l-19.45-8.85v-25.58h-55.17v25.58l-19.45,8.85v19.15l-10.86,4.94v66.85l57.9,17.14,57.9-17.14v-66.85l-10.86-4.94ZM1474.15,1045.02h17.93v11.49h-17.93v-11.49ZM1496.22,1082.53v91.73h-1.84v-90.83l-48.08,23.7-.81-1.65,50.09-24.69.81,1.65-.17.08ZM1517.36,1056.52h-17.93v-11.49h17.93v11.49Z"/>
    </g>
    <path class="cls-1" d="M1193.84,1115.61c0,1.65-.96,2.99-2.14,2.99h-19.26c-1.18,0-2.14-1.34-2.14-2.99v-.6c0-1.65.96-2.99,2.14-2.99h19.26c1.18,0,2.14,1.34,2.14,2.99v.6Z"/>
    <rect class="cls-1" x="1173.51" y="1117.41" width="8.99" height="11.95"/>
    <path class="cls-1" d="M1387.29,993.57c-6.44-6.67-15.49-4.69-20.2,4.44-1,1.94-1.72,4.04-2.18,6.22-.03,0-.06,0-.1,0-.12,0-.23.02-.34.04-.46-2.19-1.18-4.3-2.19-6.25-4.71-9.13-13.75-11.12-20.2-4.44-2.84,2.94-4.7,7.07-5.49,11.55.44-.55.9-1.08,1.38-1.58,7.61-7.88,18.16-5.93,24.11,4.17-.16.72-.26,1.52-.26,2.37,0,3.23,1.33,5.86,2.98,5.86s2.98-2.62,2.98-5.86c0-.96-.12-1.87-.33-2.67,5.98-9.84,16.4-11.68,23.93-3.88.48.5.94,1.03,1.38,1.58-.79-4.48-2.65-8.61-5.49-11.55Z"/>
    <path class="cls-1" d="M1582.89,959.8c-6.44-6.67-15.49-4.69-20.2,4.44-1,1.94-1.72,4.04-2.18,6.22-.03,0-.06,0-.1,0-.12,0-.23.02-.34.04-.46-2.19-1.18-4.3-2.19-6.25-4.71-9.13-13.75-11.12-20.2-4.44-2.84,2.94-4.7,7.07-5.49,11.55.44-.55.9-1.08,1.38-1.58,7.61-7.88,18.16-5.93,24.11,4.18-.16.72-.26,1.52-.26,2.37,0,3.23,1.33,5.86,2.98,5.86s2.98-2.62,2.98-5.86c0-.96-.12-1.87-.33-2.67,5.98-9.85,16.4-11.68,23.93-3.88.48.5.94,1.03,1.38,1.58-.79-4.48-2.65-8.61-5.48-11.55Z"/>
    <path class="cls-1" d="M1637.99,1143.52c-.63,8.67-7.85,15.51-16.68,15.51-5.17,0-9.79-2.34-12.85-6.02-3.07,3.68-7.69,6.02-12.85,6.02s-9.79-2.34-12.85-6.02c-3.07,3.68-7.69,6.02-12.85,6.02s-9.79-2.34-12.85-6.02c-3.07,3.68-7.69,6.02-12.85,6.02s-9.79-2.34-12.86-6.02c-3.07,3.68-7.69,6.02-12.85,6.02s-9.78-2.34-12.85-6.02c-3.07,3.68-7.69,6.02-12.85,6.02s-9.78-2.34-12.85-6.02c-3.07,3.68-7.69,6.02-12.85,6.02s-9.79-2.34-12.85-6.02c-3.07,3.68-7.69,6.02-12.85,6.02s-9.79-2.34-12.86-6.02c-3.07,3.68-7.69,6.02-12.85,6.02s-9.79-2.34-12.85-6.02c-3.07,3.68-7.69,6.02-12.85,6.02s-9.79-2.34-12.85-6.02c-3.07,3.68-7.69,6.02-12.85,6.02s-9.79-2.34-12.85-6.02c-3.07,3.68-7.69,6.02-12.85,6.02s-9.79-2.34-12.85-6.02c-3.07,3.68-7.69,6.02-12.85,6.02s-9.79-2.34-12.85-6.02c-3.07,3.68-7.69,6.02-12.85,6.02s-9.79-2.34-12.85-6.02c-3.07,3.68-7.69,6.02-12.86,6.02s-9.78-2.34-12.85-6.02c-3.07,3.68-7.69,6.02-12.85,6.02s-9.79-2.34-12.85-6.02c-3.07,3.68-7.69,6.02-12.85,6.02-8.83,0-16.06-6.84-16.68-15.51h-5.7v23.67h456.11v-23.67h-5.7Z"/>
  </g>
</svg>